<svg width="261" height="54" viewBox="0 0 261 54" fill="none" xmlns="http://www.w3.org/2000/svg">
<g clip-path="url(#clip0_124_9)">
<path d="M7.91777 31.5053C8.8849 31.4999 9.8433 31.6887 10.7363 32.0606C11.6293 32.4325 12.4387 32.9799 13.1168 33.6704C13.7899 34.3488 14.3293 35.1481 14.7067 36.0266C15.0845 36.9345 15.279 37.9084 15.279 38.8921C15.279 39.8758 15.0845 40.8497 14.7067 41.7577C14.3293 42.6361 13.7899 43.4354 13.1168 44.1138C12.4467 44.7894 11.6533 45.3299 10.7796 45.7058C9.87484 46.0908 8.90083 46.2859 7.91777 46.2789H2.75055V52.2966C2.75067 52.4784 2.71418 52.6584 2.6433 52.8257C2.57242 52.9931 2.4686 53.1445 2.33801 53.2708C2.20742 53.397 2.05276 53.4957 1.88325 53.5608C1.71375 53.626 1.53287 53.6562 1.35142 53.6498C0.993004 53.6498 0.649259 53.5072 0.395817 53.2535C0.142376 52.9997 -1.09422e-05 52.6555 -1.09422e-05 52.2966V32.9063C-0.00600401 32.7207 0.0261992 32.536 0.0945793 32.3634C0.162959 32.1909 0.266054 32.0343 0.397467 31.9033C0.520988 31.7754 0.669326 31.6741 0.833373 31.6057C0.99742 31.5372 1.17372 31.5031 1.35142 31.5053H7.91777ZM7.91777 45.3397C8.54167 45.3359 9.1524 45.1596 9.68257 44.8302C10.2554 44.468 10.7522 43.9976 11.1453 43.4452C11.58 42.8286 11.9129 42.1459 12.131 41.4234C12.6188 39.7821 12.6188 38.0341 12.131 36.3927C11.9161 35.6541 11.5832 34.9552 11.1453 34.3231C10.7474 33.7793 10.2513 33.3149 9.68257 32.954C9.15716 32.6141 8.54328 32.4369 7.91777 32.4446H2.75055V45.3397H7.91777Z" fill="#1D2025"/>
<path d="M26.2654 32.9063C26.2624 32.7197 26.2975 32.5345 26.3686 32.362C26.4397 32.1896 26.5452 32.0335 26.6787 31.9033C26.8004 31.773 26.9485 31.6701 27.1129 31.6015C27.2774 31.5329 27.4546 31.5001 27.6327 31.5053H35.2166C36.0744 31.5048 36.9235 31.6781 37.7127 32.0148C39.259 32.6725 40.4901 33.9052 41.1469 35.4535C41.7886 36.9735 41.8284 38.6811 41.2582 40.2294C40.7126 41.6142 39.73 42.7826 38.46 43.5566C37.812 43.9389 37.1014 44.203 36.3613 44.3367L36.6952 44.8461L40.5905 51.6439C40.6878 51.8413 40.7317 52.0609 40.7177 52.2807C40.721 52.6369 40.5839 52.9802 40.3361 53.2359C40.2126 53.3682 40.062 53.4723 39.8946 53.541C39.7272 53.6097 39.547 53.6414 39.3662 53.6339C39.1292 53.6418 38.8941 53.5872 38.6848 53.4754C38.4755 53.3636 38.2993 53.1987 38.1738 52.9971C38.1738 52.9971 38.1738 52.9971 38.1738 52.9175L33.3087 44.3367H29.0795V52.2966C29.0788 52.4755 29.0418 52.6525 28.9707 52.8167C28.8997 52.9809 28.796 53.1289 28.6661 53.2518C28.5378 53.3822 28.3841 53.4847 28.2145 53.5532C28.0449 53.6217 27.8631 53.6545 27.6804 53.6498C27.5023 53.655 27.3251 53.6222 27.1606 53.5536C26.9962 53.485 26.8481 53.3821 26.7264 53.2518C26.5965 53.1289 26.4929 52.9809 26.4218 52.8167C26.3508 52.6525 26.3138 52.4755 26.3131 52.2966V32.9063H26.2654ZM29.0318 43.477H35.2166C35.7253 43.4775 36.223 43.328 36.6475 43.0472C37.1189 42.7428 37.52 42.3412 37.824 41.8691C38.1622 41.318 38.4242 40.7236 38.6031 40.102C38.8366 39.4142 38.9653 38.695 38.9847 37.9688C38.9937 37.2464 38.8918 36.5269 38.6826 35.8355C38.5068 35.2129 38.2446 34.618 37.9035 34.0684C37.6041 33.5884 37.2023 33.1806 36.727 32.8744C36.2978 32.6058 35.8022 32.4624 35.296 32.4605H29.1113V43.4929L29.0318 43.477Z" fill="#1D2025"/>
<path d="M63.2785 31.171C64.7925 31.1575 66.2927 31.4612 67.6826 32.0625C69.0445 32.6354 70.2854 33.4619 71.3394 34.4982C72.3873 35.534 73.2195 36.7678 73.7878 38.128C74.3918 39.5354 74.695 41.0537 74.6782 42.5855C74.6948 44.1069 74.3915 45.6149 73.7878 47.0112C73.2195 48.3714 72.3873 49.6051 71.3394 50.6409C70.2909 51.692 69.0491 52.53 67.6826 53.1085C66.2904 53.7024 64.7918 54.0057 63.2785 54C61.0342 54.0003 58.8398 53.3372 56.9703 52.094C55.1008 50.8507 53.6394 49.0826 52.7692 47.0112C52.174 45.6122 51.871 44.1061 51.8788 42.5855C51.8698 41.0545 52.1727 39.5377 52.7692 38.128C53.9155 35.3887 56.091 33.2103 58.8268 32.0625C60.2328 31.4591 61.7489 31.1555 63.2785 31.171ZM63.2785 32.0943C62.12 32.0943 60.9791 32.3785 59.9556 32.9221C58.9088 33.488 57.9847 34.2564 57.2368 35.1828C56.4342 36.1765 55.8102 37.3023 55.3926 38.51C54.5008 41.1536 54.5008 44.0173 55.3926 46.661C55.8101 47.8638 56.4342 48.9845 57.2368 49.9723C57.9943 50.8806 58.9168 51.6369 59.9556 52.2011C60.9791 52.7447 62.12 53.0289 63.2785 53.0289C64.4375 53.0328 65.5794 52.7484 66.6014 52.2011C67.6402 51.6369 68.5628 50.8806 69.3202 49.9723C70.1284 48.9883 70.7531 47.8666 71.1645 46.661C72.0755 44.0205 72.0755 41.1504 71.1645 38.51C70.7532 37.2995 70.1286 36.1726 69.3202 35.1828C68.5724 34.2564 67.6482 33.488 66.6014 32.9221C65.5794 32.3748 64.4375 32.0904 63.2785 32.0943Z" fill="#1D2025"/>
<path d="M101.77 31.5053C101.833 31.4941 101.898 31.4982 101.959 31.5175C102.02 31.5367 102.076 31.5704 102.121 31.6157C102.166 31.661 102.2 31.7167 102.219 31.7778C102.238 31.839 102.243 31.9039 102.231 31.967C102.236 32.031 102.227 32.0952 102.205 32.1555C102.183 32.2158 102.149 32.2709 102.104 32.3172L94.1546 41.8691V52.2966C94.1569 52.4745 94.1228 52.6511 94.0544 52.8153C93.9861 52.9796 93.8849 53.1281 93.7571 53.2518C93.6264 53.3834 93.47 53.4866 93.2976 53.555C93.1253 53.6235 92.9408 53.6558 92.7555 53.6498C92.5747 53.6573 92.3945 53.6256 92.2271 53.5569C92.0597 53.4882 91.9091 53.3841 91.7856 53.2518C91.5378 52.9961 91.4007 52.6529 91.404 52.2966V42.9517L83.7248 33.7818C83.5432 33.5377 83.4431 33.2425 83.4386 32.9381C83.4326 32.7526 83.4648 32.5678 83.5332 32.3952C83.6016 32.2227 83.7046 32.0661 83.8361 31.9351C83.9596 31.8072 84.1079 31.7059 84.272 31.6375C84.436 31.569 84.6123 31.5349 84.79 31.5371C85.1905 31.5511 85.571 31.716 85.8553 31.9988L93.4868 41.0731L101.436 31.6168C101.53 31.5397 101.649 31.5001 101.77 31.5053Z" fill="#1D2025"/>
<path d="M113.997 31.9033C114.12 31.7754 114.269 31.6741 114.433 31.6056C114.597 31.5372 114.773 31.5031 114.951 31.5053H126.08C126.143 31.4941 126.208 31.4982 126.269 31.5175C126.33 31.5367 126.386 31.5704 126.431 31.6157C126.476 31.661 126.51 31.7167 126.529 31.7778C126.548 31.839 126.552 31.9039 126.541 31.967C126.541 32.2854 126.398 32.4446 126.08 32.4446H116.413V42.1079H123.965C124.252 42.1079 124.379 42.2671 124.379 42.5855C124.379 42.9039 124.252 43.0472 123.965 43.0472H116.413V52.6786H126.08C126.398 52.6786 126.541 52.8379 126.541 53.1563C126.552 53.2194 126.548 53.2843 126.529 53.3455C126.51 53.4066 126.476 53.4622 126.431 53.5075C126.386 53.5529 126.33 53.5866 126.269 53.6058C126.208 53.625 126.143 53.6292 126.08 53.6179H114.951C114.592 53.6179 114.248 53.4754 113.995 53.2216C113.742 52.9678 113.599 52.6237 113.599 52.2648V32.9063C113.593 32.7207 113.625 32.5359 113.694 32.3634C113.762 32.1909 113.865 32.0343 113.997 31.9033Z" fill="#1D2025"/>
<path d="M147.099 31.171C148.557 31.1599 150.004 31.4301 151.36 31.967C152.649 32.488 153.834 33.2376 154.857 34.1798L154.985 34.3072L155.112 34.4346C155.185 34.5495 155.229 34.6807 155.239 34.8166C155.239 35.135 155.08 35.2783 154.762 35.2783C154.681 35.2869 154.598 35.272 154.525 35.2353C154.452 35.1986 154.391 35.1417 154.349 35.0713C152.42 33.1874 149.84 32.1211 147.146 32.0944H147.099C145.94 32.0943 144.799 32.3786 143.776 32.9222C142.729 33.488 141.805 34.2564 141.057 35.1828C140.254 36.1765 139.63 37.3024 139.213 38.51C138.321 41.1537 138.321 44.0173 139.213 46.661C139.63 47.8638 140.254 48.9845 141.057 49.9723C141.814 50.8806 142.737 51.6369 143.776 52.2011C144.799 52.7447 145.94 53.0289 147.099 53.0289C148.491 53.038 149.871 52.7618 151.153 52.217C152.383 51.695 153.497 50.9318 154.428 49.9723C154.495 49.9069 154.579 49.8624 154.671 49.8445C154.762 49.8267 154.857 49.8361 154.944 49.8717C155.03 49.9073 155.104 49.9675 155.157 50.0448C155.209 50.1221 155.238 50.2131 155.239 50.3066C155.241 50.368 155.231 50.4292 155.209 50.4866C155.187 50.544 155.154 50.5965 155.112 50.6409C154.072 51.6877 152.841 52.5254 151.487 53.1085C150.085 53.7067 148.575 54.0101 147.051 54C144.807 54.0003 142.612 53.3373 140.743 52.094C138.873 50.8508 137.412 49.0826 136.542 47.0112C135.946 45.6122 135.643 44.1061 135.651 42.5855C135.642 41.0545 135.945 39.5377 136.542 38.128C137.688 35.3887 139.864 33.2103 142.599 32.0625C144.02 31.4526 145.553 31.1489 147.099 31.171Z" fill="#1D2025"/>
<path d="M171.965 32.4446H165.78C165.462 32.4446 165.319 32.2854 165.319 31.967C165.308 31.9039 165.312 31.839 165.331 31.7778C165.35 31.7167 165.384 31.661 165.429 31.6157C165.475 31.5704 165.53 31.5367 165.591 31.5175C165.652 31.4982 165.717 31.4941 165.78 31.5053H180.948C181.012 31.4949 181.077 31.4994 181.138 31.5187C181.2 31.5379 181.256 31.5713 181.302 31.6161C181.349 31.661 181.384 31.7161 181.405 31.777C181.426 31.8379 181.433 31.903 181.425 31.967C181.433 32.0316 181.426 32.097 181.404 32.1585C181.383 32.2199 181.348 32.2757 181.302 32.3217C181.256 32.3677 181.201 32.4026 181.139 32.4239C181.078 32.4452 181.012 32.4523 180.948 32.4446H174.731V52.2966C174.734 52.4745 174.7 52.6511 174.631 52.8153C174.563 52.9796 174.462 53.1281 174.334 53.2518C174.21 53.3841 174.06 53.4882 173.892 53.5569C173.725 53.6256 173.545 53.6573 173.364 53.6498C173.181 53.6575 172.998 53.626 172.828 53.5573C172.658 53.4887 172.505 53.3845 172.378 53.2518C172.248 53.1289 172.145 52.9809 172.074 52.8167C172.003 52.6525 171.966 52.4755 171.965 52.2966V32.4446Z" fill="#1D2025"/>
<path d="M201.426 31.171C202.945 31.159 204.45 31.4626 205.846 32.0625C207.203 32.6358 208.439 33.4624 209.487 34.4982C210.535 35.534 211.367 36.7678 211.935 38.128C212.539 39.5354 212.843 41.0537 212.826 42.5855C212.842 44.1069 212.539 45.6149 211.935 47.0112C211.367 48.3714 210.535 49.6051 209.487 50.6409C208.444 51.6916 207.208 52.5296 205.846 53.1085C204.466 53.6899 202.985 53.9933 201.488 54.0015C199.99 54.0097 198.506 53.7225 197.12 53.1563C195.734 52.5901 194.472 51.756 193.408 50.7016C192.343 49.6472 191.497 48.3932 190.917 47.0112C190.321 45.6122 190.018 44.1061 190.026 42.5855C190.017 41.0545 190.32 39.5377 190.917 38.128C192.063 35.3887 194.239 33.2103 196.974 32.0625C198.38 31.4591 199.896 31.1555 201.426 31.171ZM201.426 32.0943C200.267 32.0943 199.127 32.3785 198.103 32.9221C197.056 33.488 196.132 34.2564 195.384 35.1828C194.582 36.1765 193.958 37.3023 193.54 38.51C192.648 41.1536 192.648 44.0173 193.54 46.661C193.958 47.8638 194.582 48.9845 195.384 49.9723C196.142 50.8806 197.064 51.6369 198.103 52.2011C199.127 52.7447 200.267 53.0289 201.426 53.0289C202.585 53.0328 203.727 52.7484 204.749 52.2011C205.788 51.6369 206.71 50.8806 207.468 49.9723C208.276 48.9883 208.901 47.8666 209.312 46.661C210.223 44.0205 210.223 41.1504 209.312 38.51C208.901 37.2995 208.276 36.1726 207.468 35.1828C206.72 34.2564 205.796 33.488 204.749 32.9221C203.727 32.3748 202.585 32.0904 201.426 32.0943Z" fill="#1D2025"/>
<path d="M240.283 31.9033C240.407 31.7754 240.555 31.6741 240.719 31.6056C240.883 31.5372 241.06 31.503 241.237 31.5053C241.488 31.4976 241.736 31.5607 241.952 31.6874C242.169 31.8141 242.345 31.9993 242.462 32.2217L250.411 46.056L258.361 32.2217C258.469 32.0031 258.637 31.8196 258.845 31.6928C259.054 31.566 259.294 31.501 259.537 31.5053C259.723 31.4986 259.908 31.5303 260.081 31.5983C260.253 31.6664 260.41 31.7693 260.541 31.9008C260.673 32.0322 260.776 32.1893 260.843 32.3623C260.911 32.5353 260.943 32.7205 260.936 32.9063V52.2966C260.939 52.4745 260.905 52.651 260.836 52.8153C260.768 52.9796 260.667 53.1281 260.539 53.2518C260.408 53.3834 260.252 53.4866 260.079 53.555C259.907 53.6235 259.723 53.6558 259.537 53.6498C259.357 53.6573 259.176 53.6256 259.009 53.5569C258.842 53.4882 258.691 53.3841 258.567 53.2518C258.32 52.9961 258.182 52.6529 258.186 52.2966V34.3868L252.287 44.5277L250.507 47.6321C250.384 47.8429 250.208 48.0184 249.998 48.1415C249.845 48.2425 249.671 48.3079 249.489 48.3327C249.308 48.3574 249.123 48.3411 248.948 48.2848C248.587 48.1892 248.279 47.9546 248.09 47.6321L240.76 34.8962V53.1881C240.768 53.2506 240.762 53.314 240.741 53.3735C240.721 53.4331 240.687 53.4871 240.642 53.5317C240.598 53.5762 240.544 53.61 240.485 53.6304C240.425 53.6509 240.362 53.6575 240.299 53.6498C240.236 53.6602 240.171 53.6556 240.109 53.6364C240.048 53.6172 239.991 53.5838 239.945 53.5389C239.899 53.494 239.863 53.439 239.842 53.378C239.821 53.3171 239.814 53.2521 239.822 53.1881V32.9063C239.825 32.7162 239.868 32.5288 239.947 32.3561C240.027 32.1835 240.141 32.0293 240.283 31.9033Z" fill="#1D2025"/>
<path d="M63.9145 10.1728C63.0796 9.72412 62.3859 9.05161 61.9112 8.23055C61.4319 7.38044 61.1801 6.42078 61.1801 5.44458C61.1801 4.46838 61.4319 3.50873 61.9112 2.65862C62.3919 1.83264 63.0905 1.15515 63.9304 0.700461C64.8165 0.230898 65.8056 -0.00986743 66.8081 -1.44876e-05C67.5904 -0.00677472 68.367 0.133646 69.0976 0.413916C69.7699 0.692748 70.3726 1.11675 70.8624 1.65566L69.8607 2.61086C69.48 2.20106 69.0166 1.87701 68.5013 1.66018C67.986 1.44335 67.4305 1.33869 66.8717 1.35318C66.1284 1.34342 65.395 1.52426 64.7412 1.87851C64.1113 2.21789 63.5924 2.73197 63.2467 3.35909C62.8792 3.99158 62.6922 4.71297 62.7061 5.44458C62.6946 6.17591 62.8815 6.89666 63.2467 7.53007C63.5926 8.15298 64.1118 8.66179 64.7412 8.99467C65.3908 9.36138 66.1261 9.54825 66.8717 9.53599C67.4314 9.54643 67.987 9.43836 68.5021 9.21888C69.0172 8.99941 69.4802 8.67344 69.8607 8.26237L70.8624 9.21757C70.3698 9.76044 69.761 10.1849 69.0817 10.4593C68.2504 10.786 67.3586 10.9294 66.4669 10.88C65.5752 10.8305 64.7047 10.5894 63.9145 10.1728Z" fill="#1D2025"/>
<path d="M80.3224 8.10317H74.6623L73.5017 10.7618H71.9117L76.6815 0.12738H78.1919L82.9616 10.7618H81.3717L80.3224 8.10317ZM79.7818 6.8933L77.4923 1.6716L75.2028 6.8933H79.7818Z" fill="#1D2025"/>
<path d="M86.1891 10.5071C85.5384 10.3213 84.936 9.99526 84.4243 9.55188L84.9967 8.3579C85.4596 8.76166 86.0009 9.06518 86.5866 9.2494C87.2082 9.47727 87.8644 9.59576 88.5263 9.59964C89.2175 9.64162 89.9065 9.4871 90.5137 9.15389C90.7147 9.02673 90.8801 8.85039 90.9942 8.64148C91.1082 8.43257 91.1672 8.19798 91.1656 7.9599C91.1708 7.79389 91.141 7.62863 91.078 7.47499C91.0149 7.32135 90.9202 7.18279 90.7999 7.0684C90.5556 6.82447 90.2554 6.64413 89.9254 6.54306C89.4415 6.37488 88.9477 6.23663 88.4468 6.12913C87.7881 5.98207 87.1401 5.79062 86.5071 5.55604C86.0219 5.36638 85.5905 5.06019 85.2511 4.66449C84.8885 4.21546 84.7019 3.64942 84.7264 3.07251C84.7021 2.50796 84.858 1.95033 85.1716 1.48053C85.5054 0.990172 85.9751 0.608372 86.523 0.382104C87.2443 0.0886032 88.0183 -0.0523371 88.7966 -0.0318264C89.419 -0.0318323 90.0389 0.0484171 90.6409 0.206961C91.207 0.347469 91.7448 0.584415 92.2308 0.907437L91.7221 2.13324C91.2802 1.84557 90.7979 1.62557 90.2911 1.48053C89.8107 1.3388 89.3132 1.26384 88.8125 1.25767C88.1319 1.20968 87.4535 1.3767 86.8728 1.73525C86.6726 1.86709 86.5082 2.04668 86.3944 2.25786C86.2807 2.46904 86.221 2.70522 86.2209 2.94517C86.2157 3.11119 86.2455 3.27644 86.3086 3.43008C86.3716 3.58373 86.4663 3.72229 86.5866 3.83668C86.8445 4.07908 87.1546 4.25886 87.4929 4.36206C87.9727 4.52629 88.4609 4.66443 88.9556 4.77594C89.6092 4.92265 90.252 5.11416 90.8794 5.34908C91.3604 5.53911 91.7905 5.8389 92.1354 6.22465C92.4993 6.67296 92.686 7.23951 92.6601 7.81663C92.6801 8.38067 92.5245 8.93699 92.2149 9.40861C91.8666 9.89816 91.387 10.279 90.8317 10.5071C90.1015 10.7872 89.324 10.9224 88.5422 10.9051C87.741 10.9068 86.9453 10.7722 86.1891 10.5071Z" fill="#1D2025"/>
<path d="M102.359 8.10317H96.7144L95.5537 10.7618H93.9638L98.7335 0.12738H100.244L105.014 10.7618H103.424L102.359 8.10317ZM101.834 6.8933L99.5444 1.6716L97.2549 6.8933H101.834Z" fill="#1D2025"/>
<path d="M120.929 6.12912C121.292 6.62678 121.477 7.23254 121.453 7.84844C121.473 8.25988 121.388 8.66955 121.207 9.03961C121.027 9.40967 120.756 9.72822 120.42 9.96581C119.51 10.5253 118.449 10.7868 117.383 10.714H112.311V0.079615H117.081C118.071 0.019762 119.054 0.270137 119.895 0.795977C120.217 1.02316 120.477 1.32696 120.652 1.67995C120.827 2.03294 120.911 2.42403 120.897 2.81782C120.916 3.33011 120.777 3.83583 120.499 4.26649C120.252 4.66864 119.893 4.98963 119.466 5.18986C120.04 5.34161 120.552 5.67019 120.929 6.12912ZM113.838 1.35318V4.76004H116.89C117.524 4.80113 118.155 4.6514 118.703 4.33018C118.9 4.18189 119.061 3.98961 119.171 3.76855C119.281 3.5475 119.339 3.30376 119.339 3.05661C119.339 2.80946 119.281 2.56568 119.171 2.34462C119.061 2.12357 118.9 1.93129 118.703 1.783C118.155 1.46178 117.524 1.31209 116.89 1.35318H113.838ZM119.259 9.10612C119.479 8.9626 119.657 8.76308 119.774 8.52808C119.892 8.29307 119.944 8.03104 119.927 7.76886C119.927 6.5908 119.053 5.98585 117.32 5.98585H113.838V9.53599H117.32C117.994 9.58072 118.667 9.43156 119.259 9.10612Z" fill="#1D2025"/>
<path d="M126.43 10.1728C125.591 9.72445 124.892 9.0522 124.411 8.23055C123.921 7.38404 123.663 6.42298 123.663 5.44458C123.663 4.46618 123.921 3.50512 124.411 2.65861C124.896 1.83614 125.593 1.15971 126.43 0.700459C127.326 0.227003 128.326 -0.0138404 129.339 -1.66096e-05C130.342 -0.0119035 131.332 0.228983 132.217 0.700459C133.057 1.15514 133.756 1.83264 134.236 2.65861C134.716 3.50873 134.967 4.46838 134.967 5.44458C134.967 6.42078 134.716 7.38044 134.236 8.23055C133.76 9.05592 133.06 9.72931 132.217 10.1728C131.336 10.6571 130.344 10.9039 129.339 10.8891C128.324 10.9058 127.322 10.659 126.43 10.1728ZM131.438 8.99467C132.052 8.64714 132.563 8.14151 132.917 7.53007C133.275 6.89375 133.461 6.17497 133.457 5.44458C133.463 4.71392 133.277 3.99457 132.917 3.35909C132.564 2.74275 132.054 2.23165 131.438 1.87851C130.796 1.52279 130.073 1.34168 129.339 1.35318C128.596 1.34342 127.863 1.52425 127.209 1.87851C126.59 2.22721 126.078 2.73936 125.73 3.35909C125.363 3.99158 125.176 4.71297 125.19 5.44458C125.178 6.17591 125.365 6.89665 125.73 7.53007C126.079 8.14494 126.591 8.65164 127.209 8.99467C127.858 9.36138 128.594 9.54825 129.339 9.53598C130.086 9.55543 130.823 9.36808 131.47 8.99467H131.438Z" fill="#1D2025"/>
<path d="M139.149 9.66333C138.73 9.19024 138.408 8.63842 138.204 8.03992C137.999 7.44141 137.915 6.80814 137.957 6.17689V0.12738H139.547V6.12913C139.547 8.40566 140.532 9.55188 142.536 9.55188C142.945 9.57834 143.356 9.51678 143.74 9.37125C144.124 9.22572 144.472 8.9996 144.761 8.70813C145.326 7.97352 145.593 7.05238 145.509 6.12913V0.143267H146.987V6.12913C147.031 6.76299 146.948 7.39927 146.744 8.00066C146.539 8.60206 146.216 9.1565 145.795 9.63151C144.872 10.4177 143.7 10.8494 142.488 10.8494C141.276 10.8494 140.104 10.4177 139.181 9.63151L139.149 9.66333Z" fill="#1D2025"/>
<path d="M152.775 1.4487H149.118V0.12738H157.91V1.4487H154.269V10.7618H152.775V1.4487Z" fill="#1D2025"/>
<path d="M160.327 0.12738H161.917V10.7618H160.327V0.12738Z" fill="#1D2025"/>
<path d="M176.751 11.7329C176.419 12.1288 176.007 12.4491 175.542 12.6721C175.084 12.8842 174.584 12.9929 174.079 12.9905C173.424 12.9947 172.778 12.8303 172.203 12.513C171.464 12.0798 170.789 11.5438 170.2 10.921C169.244 10.8881 168.313 10.6084 167.497 10.1091C166.701 9.64672 166.047 8.97504 165.605 8.16684C165.146 7.33031 164.905 6.39119 164.905 5.43659C164.905 4.482 165.146 3.54288 165.605 2.70635C166.09 1.88388 166.788 1.20745 167.624 0.748197C168.521 0.276646 169.521 0.0359206 170.534 0.0477218C171.537 0.0358349 172.526 0.276721 173.412 0.748197C174.252 1.20288 174.95 1.88038 175.431 2.70635C175.926 3.54994 176.179 4.51397 176.162 5.49232C176.172 6.32309 175.992 7.14511 175.638 7.89618C175.297 8.61108 174.797 9.23766 174.175 9.72699C173.536 10.2312 172.791 10.5849 171.997 10.7618C172.281 11.0946 172.627 11.3701 173.014 11.5737C173.327 11.7416 173.677 11.829 174.032 11.8284C174.402 11.8274 174.767 11.7457 175.102 11.589C175.437 11.4322 175.733 11.2043 175.971 10.921L176.751 11.7329ZM166.988 7.53005C167.343 8.14604 167.86 8.65263 168.483 8.99465C169.128 9.35 169.853 9.53635 170.59 9.53635C171.326 9.53635 172.051 9.35 172.696 8.99465C173.311 8.64712 173.821 8.14149 174.175 7.53005C174.533 6.89373 174.719 6.17495 174.715 5.44456C174.722 4.7139 174.535 3.99455 174.175 3.35907C173.822 2.74273 173.312 2.23163 172.696 1.87849C172.047 1.53419 171.324 1.35418 170.59 1.35418C169.855 1.35418 169.132 1.53419 168.483 1.87849C167.86 2.22683 167.343 2.73872 166.988 3.35907C166.621 3.99156 166.434 4.71295 166.448 5.44456C166.436 6.17589 166.623 6.89663 166.988 7.53005Z" fill="#1D2025"/>
<path d="M180.487 9.66333C180.067 9.19024 179.746 8.63842 179.541 8.03992C179.337 7.44141 179.253 6.80814 179.294 6.17689V0.12738H180.884V6.12913C180.884 8.40566 181.886 9.55188 183.873 9.55188C184.283 9.57834 184.694 9.51678 185.077 9.37125C185.461 9.22572 185.81 8.9996 186.099 8.70813C186.675 7.97811 186.954 7.05653 186.878 6.12913V0.143267H188.357V6.12913C188.401 6.76299 188.318 7.39927 188.113 8.00066C187.908 8.60206 187.586 9.1565 187.164 9.63151C186.242 10.4177 185.069 10.8494 183.857 10.8494C182.646 10.8494 181.473 10.4177 180.55 9.63151L180.487 9.66333Z" fill="#1D2025"/>
<path d="M199.804 9.44043V10.7618H192.077V0.12738H199.566V1.4487H193.588V4.71225H198.914V6.0018H193.588V9.44043H199.804Z" fill="#1D2025"/>
<path d="M0 19.8998H261" stroke="black" stroke-width="0.25" stroke-miterlimit="10"/>
</g>
<defs>
<clipPath id="clip0_124_9">
<rect width="261" height="54" fill="white"/>
</clipPath>
</defs>
</svg>
