<?xml version="1.0" encoding="utf-8"?>
<!-- Generator: Adobe Illustrator 26.0.0, SVG Export Plug-In . SVG Version: 6.00 Build 0)  -->
<svg version="1.1" id="Capa_1" xmlns="http://www.w3.org/2000/svg" xmlns:xlink="http://www.w3.org/1999/xlink" x="0px" y="0px"
	 viewBox="0 0 436.24 143.29" style="enable-background:new 0 0 436.24 143.29;" xml:space="preserve">
<style type="text/css">
	.st0{fill:none;stroke:#010202;stroke-width:0.25;stroke-miterlimit:10;}
	.st1{fill:none;stroke:#A9A9A9;stroke-miterlimit:10;}
</style>
<g>
	<g>
		<path d="M37.18,78.29c1.5,0,2.91,0.28,4.22,0.84c1.31,0.56,2.46,1.35,3.44,2.35c0.98,1,1.75,2.16,2.31,3.47
			c0.56,1.31,0.84,2.72,0.84,4.22c0,1.5-0.28,2.91-0.84,4.22c-0.56,1.32-1.34,2.47-2.31,3.47c-0.98,1-2.13,1.78-3.44,2.34
			c-1.31,0.56-2.72,0.85-4.22,0.85h-7.63v6.82v2c0,0.54-0.2,1.01-0.59,1.41c-0.4,0.4-0.89,0.59-1.47,0.59
			c-0.54,0-1.01-0.2-1.41-0.59c-0.4-0.4-0.59-0.87-0.59-1.41V80.35c0-0.58,0.2-1.07,0.59-1.47c0.4-0.4,0.87-0.59,1.41-0.59H37.18z
			 M37.18,98.69c0.92,0,1.78-0.25,2.6-0.75c0.81-0.5,1.53-1.18,2.16-2.04c0.63-0.85,1.12-1.85,1.47-3c0.35-1.15,0.53-2.39,0.53-3.72
			c0-1.29-0.18-2.52-0.53-3.69c-0.36-1.17-0.84-2.18-1.47-3.03c-0.63-0.85-1.35-1.53-2.16-2.03c-0.81-0.5-1.68-0.75-2.6-0.75h-7.63
			v0.69v18.33H37.18z"/>
		<path d="M64.33,80.35c0-0.58,0.2-1.07,0.59-1.47c0.4-0.4,0.87-0.59,1.41-0.59h11.2c1.29,0,2.52,0.25,3.69,0.75
			c1.17,0.5,2.18,1.18,3.04,2.03c0.85,0.86,1.53,1.87,2.03,3.04c0.5,1.17,0.75,2.4,0.75,3.69c0,1.17-0.2,2.27-0.6,3.32
			c-0.4,1.04-0.95,1.98-1.66,2.81c-0.71,0.84-1.53,1.53-2.47,2.1c-0.94,0.56-1.97,0.95-3.1,1.16l0.5,0.75l5.76,10.01
			c0.13,0.25,0.19,0.56,0.19,0.94c0,0.54-0.19,1.01-0.56,1.41s-0.85,0.59-1.44,0.59c-0.75,0-1.34-0.31-1.75-0.94
			c0-0.04-0.02-0.08-0.06-0.13l-7.2-12.51H68.4v11.2v0.38c0,0.54-0.2,1.01-0.59,1.41s-0.89,0.59-1.47,0.59
			c-0.54,0-1.01-0.2-1.41-0.59c-0.4-0.4-0.59-0.87-0.59-1.41V97.31v-1.38V80.35z M68.4,95.94h9.14c0.75,0,1.46-0.21,2.13-0.63
			c0.67-0.42,1.24-1,1.72-1.75c0.48-0.75,0.87-1.62,1.16-2.6c0.29-0.98,0.44-2.04,0.44-3.16c0-1.13-0.15-2.18-0.44-3.16
			c-0.29-0.98-0.68-1.85-1.16-2.6c-0.48-0.75-1.05-1.34-1.72-1.75c-0.67-0.42-1.38-0.63-2.13-0.63H68.4v0.69V95.94z"/>
		<path d="M118.9,77.79c2.29,0,4.46,0.44,6.51,1.31c2.04,0.88,3.84,2.08,5.38,3.6c1.54,1.52,2.75,3.31,3.63,5.35
			c0.88,2.04,1.31,4.24,1.31,6.57c0,2.34-0.44,4.52-1.31,6.54c-0.88,2.02-2.09,3.81-3.63,5.35c-1.54,1.54-3.34,2.75-5.38,3.63
			c-2.04,0.88-4.22,1.31-6.51,1.31c-2.34,0-4.53-0.44-6.57-1.31c-2.04-0.88-3.83-2.09-5.35-3.63c-1.52-1.54-2.72-3.33-3.6-5.35
			c-0.88-2.02-1.31-4.2-1.31-6.54c0-2.34,0.44-4.53,1.31-6.57c0.88-2.04,2.08-3.83,3.6-5.35c1.52-1.52,3.31-2.72,5.35-3.6
			C114.37,78.23,116.56,77.79,118.9,77.79z M118.9,79.17c-1.75,0-3.39,0.41-4.91,1.22c-1.52,0.81-2.86,1.92-4,3.32
			c-1.15,1.4-2.06,3.03-2.72,4.91s-1,3.88-1,6.01c0,2.13,0.33,4.13,1,6.01s1.57,3.5,2.72,4.88c1.15,1.38,2.48,2.47,4,3.29
			c1.52,0.81,3.16,1.22,4.91,1.22c1.75,0,3.39-0.41,4.91-1.22c1.52-0.81,2.86-1.91,4.01-3.29c1.15-1.38,2.05-3,2.72-4.88
			s1-3.88,1-6.01c0-2.13-0.33-4.13-1-6.01s-1.57-3.51-2.72-4.91c-1.15-1.4-2.48-2.5-4.01-3.32
			C122.29,79.57,120.65,79.17,118.9,79.17z"/>
		<path d="M175.72,78.29c0.46,0,0.69,0.23,0.69,0.69c0,0.21-0.06,0.38-0.19,0.5l-11.77,14.02v15.4c0,0.54-0.2,1.01-0.59,1.41
			s-0.89,0.59-1.47,0.59c-0.58,0-1.06-0.2-1.44-0.59c-0.37-0.4-0.56-0.87-0.56-1.41V95.12l-11.33-13.52
			c-0.29-0.42-0.44-0.83-0.44-1.25c0-0.58,0.2-1.07,0.59-1.47c0.4-0.4,0.87-0.59,1.41-0.59c0.58,0,1.1,0.23,1.56,0.69
			c0,0.04,0.01,0.06,0.03,0.06c0.02,0,0.03,0.02,0.03,0.06l11.26,13.39l11.7-13.96C175.39,78.37,175.56,78.29,175.72,78.29z"/>
		<path d="M193.77,78.88c0.4-0.4,0.87-0.59,1.41-0.59h0.06h16.27c0.46,0,0.69,0.23,0.69,0.69c0,0.46-0.23,0.69-0.69,0.69h-14.27
			v0.69v13.58h11.14c0.42,0,0.63,0.23,0.63,0.69c0,0.46-0.21,0.69-0.63,0.69h-11.14v13.58v0.63h14.27c0.46,0,0.69,0.23,0.69,0.69
			c0,0.46-0.23,0.69-0.69,0.69h-16.33c-0.54,0-1.01-0.2-1.41-0.59s-0.59-0.87-0.59-1.41V95.31v-1.38V80.35
			C193.18,79.77,193.38,79.28,193.77,78.88z"/>
		<path d="M242.62,77.79c2.25,0,4.35,0.4,6.29,1.19c1.94,0.79,3.66,1.88,5.16,3.25c0.08,0.08,0.15,0.15,0.19,0.19
			c0.04,0.04,0.11,0.11,0.19,0.19h0.06c0.12,0.21,0.19,0.4,0.19,0.56c0,0.46-0.23,0.69-0.69,0.69c-0.29,0-0.5-0.1-0.63-0.31
			c-1.38-1.33-2.96-2.39-4.76-3.16c-1.79-0.77-3.75-1.18-5.88-1.22h-0.13c-1.75,0-3.39,0.41-4.91,1.22c-1.52,0.81-2.86,1.92-4,3.32
			c-1.15,1.4-2.06,3.03-2.72,4.91c-0.67,1.88-1,3.88-1,6.01c0,2.13,0.33,4.13,1,6.01c0.67,1.88,1.57,3.5,2.72,4.88
			c1.15,1.38,2.48,2.47,4,3.29c1.52,0.81,3.16,1.22,4.91,1.22h0.06c2.13,0,4.12-0.4,5.98-1.19c1.85-0.79,3.47-1.9,4.85-3.32
			c0.12-0.12,0.29-0.19,0.5-0.19c0.46,0,0.69,0.23,0.69,0.69c0,0.21-0.06,0.38-0.19,0.5c-1.54,1.54-3.33,2.75-5.35,3.63
			c-2.02,0.88-4.2,1.31-6.54,1.31s-4.53-0.44-6.57-1.31c-2.04-0.88-3.83-2.09-5.35-3.63c-1.52-1.54-2.72-3.33-3.6-5.35
			c-0.88-2.02-1.31-4.2-1.31-6.54c0-2.34,0.44-4.53,1.31-6.57c0.88-2.04,2.08-3.83,3.6-5.35c1.52-1.52,3.31-2.72,5.35-3.6
			C238.09,78.23,240.28,77.79,242.62,77.79z"/>
		<path d="M279.35,79.67h-9.14c-0.46,0-0.69-0.23-0.69-0.69c0-0.46,0.23-0.69,0.69-0.69h9.14h4.07h9.14h0.06
			c0.46,0,0.69,0.23,0.69,0.69c0,0.46-0.23,0.69-0.69,0.69h-0.06h-9.14v29.22c0,0.54-0.19,1.01-0.56,1.41
			c-0.38,0.4-0.85,0.59-1.44,0.59s-1.07-0.2-1.47-0.59c-0.4-0.4-0.6-0.87-0.6-1.41V79.67z"/>
		<path d="M322.84,77.79c2.29,0,4.46,0.44,6.51,1.31c2.04,0.88,3.84,2.08,5.38,3.6c1.54,1.52,2.75,3.31,3.63,5.35
			c0.88,2.04,1.31,4.24,1.31,6.57c0,2.34-0.44,4.52-1.31,6.54s-2.09,3.81-3.63,5.35c-1.54,1.54-3.34,2.75-5.38,3.63
			c-2.04,0.88-4.22,1.31-6.51,1.31c-2.34,0-4.53-0.44-6.57-1.31c-2.04-0.88-3.83-2.09-5.35-3.63c-1.52-1.54-2.72-3.33-3.6-5.35
			c-0.88-2.02-1.31-4.2-1.31-6.54c0-2.34,0.44-4.53,1.31-6.57c0.88-2.04,2.08-3.83,3.6-5.35c1.52-1.52,3.31-2.72,5.35-3.6
			C318.31,78.23,320.5,77.79,322.84,77.79z M322.84,79.17c-1.75,0-3.39,0.41-4.91,1.22c-1.52,0.81-2.86,1.92-4,3.32
			c-1.15,1.4-2.06,3.03-2.72,4.91s-1,3.88-1,6.01c0,2.13,0.33,4.13,1,6.01s1.57,3.5,2.72,4.88c1.15,1.38,2.48,2.47,4,3.29
			c1.52,0.81,3.16,1.22,4.91,1.22c1.75,0,3.39-0.41,4.91-1.22c1.52-0.81,2.86-1.91,4.01-3.29c1.15-1.38,2.05-3,2.72-4.88
			s1-3.88,1-6.01c0-2.13-0.33-4.13-1-6.01s-1.57-3.51-2.72-4.91c-1.15-1.4-2.48-2.5-4.01-3.32
			C326.23,79.57,324.59,79.17,322.84,79.17z"/>
		<path d="M380.19,78.88c0.4-0.4,0.87-0.59,1.41-0.59c0.79,0,1.4,0.35,1.81,1.06l11.77,20.4l11.77-20.4c0.42-0.71,1-1.06,1.75-1.06
			c0.58,0,1.07,0.2,1.47,0.59c0.4,0.4,0.59,0.89,0.59,1.47v28.54c0,0.54-0.2,1.01-0.59,1.41c-0.4,0.4-0.89,0.59-1.47,0.59
			s-1.06-0.2-1.44-0.59c-0.37-0.4-0.56-0.87-0.56-1.41V82.54L398,97.5l-2.63,4.57c-0.21,0.33-0.46,0.58-0.75,0.75
			c-0.5,0.29-1.02,0.37-1.56,0.22c-0.54-0.15-0.96-0.47-1.25-0.97l-10.83-18.84v26.97c0,0.46-0.23,0.69-0.69,0.69
			c-0.46,0-0.69-0.23-0.69-0.69V80.35C379.6,79.77,379.8,79.28,380.19,78.88z"/>
	</g>
	<g>
		<path d="M119.85,46.85c-1.26-0.7-2.25-1.65-2.97-2.87c-0.72-1.22-1.08-2.59-1.08-4.11c0-1.52,0.36-2.89,1.08-4.11
			c0.72-1.22,1.71-2.18,2.98-2.87c1.27-0.69,2.69-1.04,4.26-1.04c1.23,0,2.35,0.21,3.36,0.62c1.02,0.41,1.88,1.02,2.6,1.83
			l-1.46,1.41c-1.18-1.24-2.65-1.86-4.42-1.86c-1.17,0-2.22,0.26-3.16,0.79c-0.94,0.52-1.68,1.24-2.21,2.16
			c-0.53,0.92-0.8,1.95-0.8,3.08c0,1.14,0.27,2.16,0.8,3.08c0.53,0.92,1.27,1.64,2.21,2.16c0.94,0.52,2,0.79,3.16,0.79
			c1.75,0,3.22-0.63,4.42-1.88l1.46,1.41c-0.72,0.81-1.59,1.42-2.61,1.84c-1.02,0.42-2.15,0.63-3.37,0.63
			C122.53,47.89,121.11,47.54,119.85,46.85z"/>
		<path d="M144.03,43.79h-8.34l-1.73,3.92h-2.31l7.11-15.69h2.22l7.13,15.69h-2.35L144.03,43.79z M143.24,42l-3.39-7.69L136.47,42
			H143.24z"/>
		<path d="M152.71,47.34c-1.1-0.37-1.96-0.84-2.59-1.42l0.83-1.75c0.6,0.54,1.36,0.98,2.3,1.31c0.93,0.34,1.89,0.5,2.88,0.5
			c1.3,0,2.27-0.22,2.91-0.66c0.64-0.44,0.96-1.03,0.96-1.76c0-0.54-0.18-0.98-0.53-1.31c-0.35-0.34-0.79-0.59-1.3-0.77
			c-0.51-0.18-1.24-0.38-2.19-0.61c-1.18-0.28-2.13-0.57-2.86-0.85c-0.73-0.28-1.35-0.72-1.86-1.31c-0.51-0.59-0.77-1.39-0.77-2.39
			c0-0.84,0.22-1.59,0.66-2.26c0.44-0.67,1.11-1.21,2.01-1.61c0.9-0.4,2.01-0.61,3.34-0.61c0.93,0,1.84,0.12,2.74,0.36
			c0.9,0.24,1.67,0.58,2.31,1.03l-0.74,1.79c-0.66-0.42-1.36-0.74-2.11-0.95c-0.75-0.22-1.48-0.33-2.2-0.33
			c-1.27,0-2.22,0.23-2.86,0.69c-0.63,0.46-0.95,1.06-0.95,1.79c0,0.54,0.18,0.98,0.54,1.31c0.36,0.34,0.8,0.6,1.33,0.78
			c0.53,0.19,1.25,0.39,2.16,0.59c1.18,0.28,2.13,0.57,2.85,0.85c0.72,0.28,1.33,0.72,1.85,1.3c0.52,0.58,0.77,1.37,0.77,2.35
			c0,0.82-0.22,1.57-0.67,2.25c-0.45,0.68-1.13,1.22-2.04,1.61c-0.91,0.4-2.03,0.59-3.36,0.59
			C154.95,47.89,153.81,47.71,152.71,47.34z"/>
		<path d="M176.6,43.79h-8.34l-1.73,3.92h-2.31l7.11-15.69h2.22l7.13,15.69h-2.35L176.6,43.79z M175.81,42l-3.39-7.69L169.04,42
			H175.81z"/>
		<path d="M203.99,40.95c0.52,0.67,0.79,1.51,0.79,2.52c0,1.36-0.51,2.41-1.54,3.14c-1.02,0.73-2.51,1.1-4.47,1.1h-7.49V32.02h7.04
			c1.79,0,3.18,0.36,4.16,1.08c0.98,0.72,1.47,1.71,1.47,2.98c0,0.82-0.19,1.53-0.57,2.13c-0.38,0.6-0.89,1.05-1.54,1.37
			C202.75,39.83,203.47,40.29,203.99,40.95z M193.52,33.83v5.02h4.6c1.15,0,2.04-0.21,2.66-0.64c0.62-0.43,0.93-1.05,0.93-1.87
			c0-0.82-0.31-1.45-0.93-1.87c-0.62-0.43-1.51-0.64-2.66-0.64H193.52z M201.55,45.27c0.64-0.42,0.96-1.08,0.96-1.97
			c0-1.75-1.28-2.62-3.83-2.62h-5.16v5.22h5.16C199.95,45.9,200.91,45.69,201.55,45.27z"/>
		<path d="M212.18,46.85c-1.27-0.7-2.27-1.65-2.99-2.88c-0.73-1.23-1.09-2.59-1.09-4.1c0-1.51,0.36-2.88,1.09-4.1
			c0.72-1.23,1.72-2.19,2.99-2.88c1.27-0.69,2.7-1.04,4.28-1.04c1.57,0,2.99,0.35,4.26,1.04c1.27,0.69,2.26,1.65,2.98,2.87
			s1.08,2.59,1.08,4.11c0,1.53-0.36,2.9-1.08,4.11s-1.71,2.17-2.98,2.87c-1.27,0.69-2.69,1.04-4.26,1.04
			C214.87,47.89,213.45,47.54,212.18,46.85z M219.56,45.11c0.92-0.52,1.64-1.24,2.17-2.16c0.53-0.92,0.8-1.95,0.8-3.08
			c0-1.14-0.27-2.16-0.8-3.08c-0.53-0.92-1.25-1.64-2.17-2.16c-0.92-0.52-1.95-0.79-3.11-0.79c-1.15,0-2.19,0.26-3.13,0.79
			c-0.94,0.52-1.67,1.24-2.2,2.16c-0.53,0.92-0.8,1.95-0.8,3.08c0,1.14,0.27,2.16,0.8,3.08c0.53,0.92,1.26,1.64,2.2,2.16
			c0.93,0.52,1.98,0.79,3.13,0.79C217.61,45.9,218.64,45.63,219.56,45.11z"/>
		<path d="M230.94,46.1c-1.17-1.2-1.75-2.91-1.75-5.16v-8.92h2.24v8.83c0,3.36,1.47,5.04,4.42,5.04c1.43,0,2.53-0.41,3.3-1.24
			c0.76-0.83,1.14-2.1,1.14-3.8v-8.83h2.17v8.92c0,2.26-0.58,3.98-1.75,5.17c-1.17,1.19-2.79,1.78-4.89,1.78
			S232.11,47.29,230.94,46.1z"/>
		<path d="M251,33.97h-5.38v-1.95h12.98v1.95h-5.38v13.74H251V33.97z"/>
		<path d="M262.17,32.02h2.24v15.69h-2.24V32.02z"/>
		<path d="M286.4,49.15c-0.51,0.6-1.1,1.05-1.77,1.37c-0.67,0.31-1.4,0.47-2.18,0.47c-0.99,0-1.91-0.23-2.77-0.71
			c-0.86-0.47-1.84-1.27-2.95-2.41c-1.48-0.07-2.81-0.47-4-1.19c-1.19-0.72-2.12-1.67-2.78-2.86s-1-2.51-1-3.96
			c0-1.51,0.36-2.88,1.09-4.1c0.72-1.23,1.72-2.19,2.99-2.88c1.27-0.69,2.7-1.04,4.28-1.04c1.57,0,2.99,0.35,4.26,1.04
			s2.26,1.65,2.98,2.87c0.72,1.22,1.08,2.59,1.08,4.11c0,1.29-0.26,2.47-0.77,3.54c-0.52,1.08-1.24,1.98-2.17,2.71
			c-0.94,0.73-2.01,1.24-3.22,1.52c0.52,0.55,1.03,0.95,1.51,1.2c0.49,0.25,0.98,0.37,1.49,0.37c1.1,0,2.06-0.45,2.87-1.35
			L286.4,49.15z M272,42.95c0.53,0.92,1.26,1.64,2.2,2.16c0.93,0.52,1.98,0.79,3.13,0.79c1.13,0,2.17-0.26,3.09-0.79
			c0.93-0.52,1.65-1.24,2.18-2.16c0.53-0.92,0.8-1.95,0.8-3.08c0-1.14-0.27-2.16-0.8-3.08c-0.53-0.92-1.26-1.64-2.18-2.16
			c-0.93-0.52-1.96-0.79-3.09-0.79c-1.15,0-2.19,0.26-3.13,0.79c-0.94,0.52-1.67,1.24-2.2,2.16c-0.53,0.92-0.8,1.95-0.8,3.08
			C271.2,41,271.47,42.03,272,42.95z"/>
		<path d="M291.8,46.1c-1.16-1.2-1.75-2.91-1.75-5.16v-8.92h2.24v8.83c0,3.36,1.47,5.04,4.41,5.04c1.43,0,2.54-0.41,3.3-1.24
			c0.76-0.83,1.14-2.1,1.14-3.8v-8.83h2.18v8.92c0,2.26-0.58,3.98-1.75,5.17c-1.17,1.19-2.79,1.78-4.89,1.78
			C294.6,47.89,292.97,47.29,291.8,46.1z"/>
		<path d="M320.43,45.76v1.95h-11.39V32.02h11.08v1.95h-8.83v4.82h7.87v1.91h-7.87v5.07H320.43z"/>
	</g>
	<line class="st0" x1="25.47" y1="61.17" x2="410.76" y2="61.17"/>
</g>
</svg>
